<svg width="41" height="40" viewBox="0 0 41 40" fill="none" xmlns="http://www.w3.org/2000/svg">
<g clip-path="url(#clip0_73_8462)">
<path d="M14.1011 31.2804L15.0611 27.7604M14.9811 27.8404L15.8611 24.4004L17.2211 29.6804M17.1411 29.6004L19.0611 37.1204C19.2211 37.6004 19.3811 38.0804 19.6211 38.5604C19.7811 38.8004 19.9411 39.0404 20.1811 39.2004C21.0611 39.9204 22.3411 39.6004 22.8211 38.5604C22.9811 38.2404 22.9811 37.8404 22.9011 37.5204L22.5811 35.7604L21.7811 31.0404M15.6211 10.3204H14.2611H11.3011C10.3411 10.3204 9.38109 10.7204 8.74109 11.3604L5.62109 16.9604V22.4004C5.62109 23.4404 6.42109 24.2404 7.46109 24.2404C8.50109 24.2404 9.30109 23.4404 9.30109 22.4004V18.8804L11.6211 14.8004V21.6804L9.30109 35.7604L8.98109 37.5204C8.90109 37.8404 8.90109 38.2404 9.06109 38.5604C9.46109 39.6004 10.7411 39.9204 11.6211 39.2004C11.8611 39.0404 12.0211 38.8004 12.1811 38.5604C12.4211 38.0804 12.5811 37.6004 12.7411 37.1204L14.2611 31.2804M24.2611 23.2804L29.0611 17.2804H22.8211L27.6211 11.9204M16.5011 17.6004C16.5011 12.4004 20.7411 8.16039 26.0211 8.16039C31.2211 8.16039 35.5411 12.4004 35.5411 17.6004C35.5411 22.8004 31.3011 27.0404 26.0211 27.0404C20.7411 27.0404 16.5011 22.8004 16.5011 17.6004ZM19.6211 4.08039C19.6211 6.08039 17.9411 7.76039 15.9411 7.76039C13.9411 7.76039 12.2611 6.08039 12.2611 4.08039C12.2611 2.08039 13.9411 0.400391 15.9411 0.400391C17.9411 0.400391 19.6211 2.08039 19.6211 4.08039Z" stroke="white" stroke-miterlimit="10" stroke-linecap="round" stroke-linejoin="round"/>
</g>
<defs>
<clipPath id="clip0_73_8462">
<rect width="40" height="40" fill="white" transform="translate(0.5)"/>
</clipPath>
</defs>
</svg>
