<svg width="41" height="40" viewBox="0 0 41 40" fill="none" xmlns="http://www.w3.org/2000/svg">
<g clip-path="url(#clip0_73_8584)">
<path d="M22.98 27.68C22.98 29.12 24.1 30.24 25.54 30.24C26.98 30.24 28.1 29.12 28.1 27.68C28.1 26.24 26.98 25.12 25.54 25.12C24.1 25.12 22.98 26.24 22.98 27.68ZM22.98 27.68H15.38M0.97998 35.36L10.66 28.96M15.38 27.68C15.38 29.12 14.26 30.24 12.82 30.24C11.38 30.24 10.26 29.12 10.26 27.68C10.26 26.24 11.38 25.12 12.82 25.12C14.26 25.12 15.38 26.24 15.38 27.68ZM27.78 26.4L35.22 22.16M0.97998 19.6L12.42 12.8M16.98 12.24L24.82 15.04M28.82 13.68L35.7 4.80002M40.02 39.6H0.97998V0.400024M40.02 20.88C40.02 22.32 38.9 23.44 37.46 23.44C36.02 23.44 34.9 22.32 34.9 20.88C34.9 19.44 36.02 18.32 37.46 18.32C38.9 18.32 40.02 19.44 40.02 20.88ZM40.02 2.96002C40.02 4.40002 38.9 5.52002 37.46 5.52002C36.02 5.52002 34.9 4.40002 34.9 2.96002C34.9 1.52002 36.02 0.400024 37.46 0.400024C38.9 0.400024 40.02 1.52002 40.02 2.96002ZM29.86 15.76C29.86 17.2 28.74 18.32 27.3 18.32C25.86 18.32 24.74 17.2 24.74 15.76C24.74 14.32 25.86 13.2 27.3 13.2C28.66 13.2 29.86 14.32 29.86 15.76ZM17.14 11.44C17.14 12.88 16.02 14 14.58 14C13.14 14 12.02 12.88 12.02 11.44C12.02 10 13.14 8.88002 14.58 8.88002C15.94 8.96002 17.14 10.08 17.14 11.44Z" stroke="white" stroke-miterlimit="10" stroke-linecap="round" stroke-linejoin="round"/>
</g>
<defs>
<clipPath id="clip0_73_8584">
<rect width="40" height="40" fill="white" transform="translate(0.5)"/>
</clipPath>
</defs>
</svg>
