<svg width="40" height="40" viewBox="0 0 40 40" fill="none" xmlns="http://www.w3.org/2000/svg">
<g clip-path="url(#clip0_73_8714)">
<path d="M5.68359 20.6333H7.45734" stroke="white" stroke-miterlimit="10" stroke-linecap="round" stroke-linejoin="round"/>
<path d="M3.92871 23.5409C3.92871 23.8323 4.08075 24.0667 4.27079 24.0667H5.29703C5.48707 24.0667 5.63911 23.8323 5.63911 23.5409V17.7318C5.63911 17.4404 5.48707 17.2061 5.29703 17.2061H4.27079C4.08075 17.2061 3.92871 17.4404 3.92871 17.7318V23.5409Z" stroke="white" stroke-miterlimit="10" stroke-linecap="round" stroke-linejoin="round"/>
<path d="M2.34521 21.9572C2.34521 22.2486 2.5796 22.483 2.871 22.483H3.92892V18.7898H2.87734C2.58594 18.7898 2.35155 19.0242 2.35155 19.3156V21.9572H2.34521Z" stroke="white" stroke-miterlimit="10" stroke-linecap="round" stroke-linejoin="round"/>
<path d="M2.34513 20.6333H1.81934" stroke="white" stroke-miterlimit="10" stroke-linecap="round" stroke-linejoin="round"/>
<path d="M27.0194 20.6333H20.2221H19.7724H12.9814" stroke="white" stroke-miterlimit="10" stroke-linecap="round" stroke-linejoin="round"/>
<path d="M34.3172 20.6333H32.5371" stroke="white" stroke-miterlimit="10" stroke-linecap="round" stroke-linejoin="round"/>
<path d="M36.0654 17.7318C36.0654 17.4404 35.9133 17.2061 35.7233 17.2061H34.6971C34.507 17.2061 34.355 17.4404 34.355 17.7318V23.5409C34.355 23.8323 34.507 24.0667 34.6971 24.0667H35.7233C35.9133 24.0667 36.0654 23.8323 36.0654 23.5409V17.7318Z" stroke="white" stroke-miterlimit="10" stroke-linecap="round" stroke-linejoin="round"/>
<path d="M37.6491 19.3156C37.6491 19.0242 37.4147 18.7898 37.1233 18.7898H36.0654V22.483H37.1233C37.4147 22.483 37.6491 22.2486 37.6491 21.9572V19.3156Z" stroke="white" stroke-miterlimit="10" stroke-linecap="round" stroke-linejoin="round"/>
<path d="M37.6494 20.6333H38.1815" stroke="white" stroke-miterlimit="10" stroke-linecap="round" stroke-linejoin="round"/>
<path d="M23.4149 3.81437C23.4149 5.70214 21.8882 7.22883 20.0004 7.22883C18.119 7.22883 16.5859 5.70214 16.5859 3.81437C16.5859 1.92659 18.1126 0.399902 20.0004 0.399902C21.8882 0.399902 23.4149 1.92659 23.4149 3.81437Z" stroke="white" stroke-miterlimit="10" stroke-linecap="round" stroke-linejoin="round"/>
<path d="M24.403 19.1889L24.1306 14.4504C24.1116 14.14 24.46 13.95 24.7134 14.1274L27.3804 15.9898C27.3804 15.9898 27.6718 18.8088 28.1025 21.7101C28.3876 23.6233 31.7197 22.9454 31.574 21.5708C31.4283 20.1264 30.7695 15.0396 30.4781 14.3174C30.2754 13.8106 27.8238 11.9102 25.955 10.5799C24.8274 9.77535 23.5225 9.26223 22.1541 9.06585C20.7225 8.86314 19.2718 8.86314 17.8401 9.06585C16.4718 9.26223 15.1668 9.77535 14.0393 10.5799C12.1768 11.9102 9.72524 13.8043 9.5162 14.3174C9.2248 15.0459 8.57231 20.1264 8.42027 21.5708C8.28091 22.9454 11.6067 23.6233 11.8918 21.7101C12.3225 18.8088 12.6139 15.9898 12.6139 15.9898L15.2809 14.1274C15.5343 13.95 15.8763 14.1464 15.8637 14.4504L15.5976 19.0559" stroke="white" stroke-miterlimit="10" stroke-linecap="round" stroke-linejoin="round"/>
<path d="M15.4266 22.0775L15.3823 22.8947C15.3823 22.8947 12.3986 34.0947 11.423 37.5028C10.8656 39.4349 14.3687 40.8602 15.3316 37.9146C16.2565 35.0956 18.6764 27.9182 19.6266 24.9662C19.747 24.5988 20.2664 24.5988 20.3804 24.9662C21.337 27.9182 23.7569 35.0956 24.6754 37.9146C25.6383 40.8602 29.1351 39.4349 28.584 37.5028C27.6085 34.0947 24.6248 22.8947 24.6248 22.8947L24.5741 22.0269" stroke="white" stroke-miterlimit="10" stroke-linecap="round" stroke-linejoin="round"/>
</g>
<defs>
<clipPath id="clip0_73_8714">
<rect width="40" height="40" fill="white"/>
</clipPath>
</defs>
</svg>
