<svg width="40" height="40" viewBox="0 0 40 40" fill="none" xmlns="http://www.w3.org/2000/svg">
<g clip-path="url(#clip0_73_8682)">
<path d="M30.4798 26.5599C31.2798 24.7999 31.7598 22.7999 31.7598 20.6399C31.7598 12.7999 25.3598 6.3999 17.5198 6.3999C9.67978 6.3999 3.27979 12.7999 3.27979 20.7199C3.27979 28.6399 9.67978 35.0399 17.5198 35.0399C19.1998 35.0399 20.7998 34.7199 22.3198 34.2399M17.6798 20.7999L12.0798 15.1199M30.9598 4.8799L33.2798 7.1999M14.3998 6.7199V0.399902H20.6398V6.7199M27.8398 10.4799L31.3598 6.7999M11.6798 0.399902H23.3598M24.3998 27.5999H17.5998L23.0398 32.2399L20.9598 39.5999L27.1198 34.8799L33.2798 39.6799L31.1998 32.2399L36.6398 27.6799H29.8398L27.1198 20.7999L24.3998 27.5999Z" stroke="white" stroke-miterlimit="10" stroke-linecap="round" stroke-linejoin="round"/>
</g>
<defs>
<clipPath id="clip0_73_8682">
<rect width="40" height="40" fill="white"/>
</clipPath>
</defs>
</svg>
