<svg width="41" height="40" viewBox="0 0 41 40" fill="none" xmlns="http://www.w3.org/2000/svg">
<g clip-path="url(#clip0_73_8540)">
<path d="M19.4798 32.2742H4.5918V4.57814H11.4518M26.5992 21.1307V7.36198H22.5895M11.4874 7.32404H7.3614V28.0984H19.5177M22.4899 4.5568H29.3688V20.9007M7.3614 17.9685H10.112L12.175 15.1989L14.9256 19.3533L18.3639 12.4293L21.1146 22.1229L23.1775 17.9685H26.6158M19.7393 3.16963C19.7393 1.64018 18.5086 0.400024 16.9886 0.400024C15.471 0.400024 14.238 1.64018 14.238 3.16963H11.4874V8.70884H22.4899V3.16963H19.7393Z" stroke="white" stroke-miterlimit="10" stroke-linecap="round" stroke-linejoin="round"/>
<path d="M24.9054 31.3324V27.813L24.1865 28.0973" stroke="white" stroke-miterlimit="10" stroke-linecap="round" stroke-linejoin="round"/>
<path d="M28.5005 29.6096C28.5005 30.603 28.2035 31.4076 27.4221 31.4076C26.6415 31.4076 26.3438 30.603 26.3438 29.6096C26.3438 28.6175 26.6415 27.813 27.4221 27.813C28.2035 27.813 28.5005 28.6175 28.5005 29.6096Z" stroke="white" stroke-miterlimit="10" stroke-linecap="round" stroke-linejoin="round"/>
<path d="M32.0943 29.6096C32.0943 30.603 31.7973 31.4076 31.0159 31.4076C30.2352 31.4076 29.9375 30.603 29.9375 29.6096C29.9375 28.6175 30.2352 27.813 31.0159 27.813C31.7973 27.813 32.0943 28.6175 32.0943 29.6096Z" stroke="white" stroke-miterlimit="10" stroke-linecap="round" stroke-linejoin="round"/>
<path d="M22.5402 32.8187L19.873 37.4306L22.6413 36.9616L23.601 39.6L25.9621 35.6347" stroke="white" stroke-miterlimit="10" stroke-linecap="round" stroke-linejoin="round"/>
<path d="M33.7412 32.8187L36.4084 37.4306L33.6401 36.9616L32.6804 39.6L30.3193 35.6347" stroke="white" stroke-miterlimit="10" stroke-linecap="round" stroke-linejoin="round"/>
<path d="M28.1402 36.0055C31.7136 36.0055 34.6104 33.1086 34.6104 29.5352C34.6104 25.9618 31.7136 23.0649 28.1402 23.0649C24.5668 23.0649 21.6699 25.9618 21.6699 29.5352C21.6699 33.1086 24.5668 36.0055 28.1402 36.0055Z" stroke="white" stroke-miterlimit="10" stroke-linecap="round" stroke-linejoin="round"/>
</g>
<defs>
<clipPath id="clip0_73_8540">
<rect width="40" height="40" fill="white" transform="translate(0.5)"/>
</clipPath>
</defs>
</svg>
