<svg width="41" height="40" viewBox="0 0 41 40" fill="none" xmlns="http://www.w3.org/2000/svg">
<g clip-path="url(#clip0_73_8499)">
<path d="M21.5404 10.4805V12.0805H15.1404V10.5605H0.900391V14.8005L21.2204 19.1205C21.2204 19.4405 21.1404 19.6805 21.1404 20.0005C21.1404 25.2805 25.3804 29.5205 30.5804 29.5205C35.7804 29.5205 40.0204 25.2805 40.0204 20.0005C40.0204 14.7205 35.7804 10.4805 30.5804 10.4805H21.5404ZM30.7404 24.4005C33.1404 24.4005 35.0604 22.4005 35.0604 20.0005C35.0604 17.6005 33.1404 15.6005 30.7404 15.6005C28.3404 15.6005 26.3404 17.6005 26.3404 20.0005C26.3404 22.4005 28.2604 24.4005 30.7404 24.4005Z" stroke="white" stroke-linecap="round" stroke-linejoin="round"/>
</g>
<defs>
<clipPath id="clip0_73_8499">
<rect width="40" height="40" fill="white" transform="translate(0.5)"/>
</clipPath>
</defs>
</svg>
