<svg width="41" height="40" viewBox="0 0 41 40" fill="none" xmlns="http://www.w3.org/2000/svg">
<g clip-path="url(#clip0_73_8758)">
<path d="M18.6604 16.56L23.5404 8.63999M14.9004 14.8L16.7404 16.8M2.90039 31.44L13.1404 15.44M22.7404 16.56L23.7004 19.12L25.7004 17.6L27.4604 19.12L28.5804 16.56M17.2204 25.68L15.3804 23.92L12.6604 26.16L11.7004 23.92M12.4204 33.76L18.4204 23.68M3.46039 32.48C3.46039 33.2 2.90039 33.76 2.18039 33.76C1.46039 33.76 0.900391 33.2 0.900391 32.48C0.900391 31.76 1.46039 31.2 2.18039 31.2C2.90039 31.2 3.46039 31.76 3.46039 32.48ZM15.1404 14C15.1404 14.72 14.5804 15.28 13.8604 15.28C13.1404 15.28 12.5804 14.72 12.5804 14C12.5804 13.28 13.1404 12.72 13.8604 12.72C14.5804 12.72 15.1404 13.28 15.1404 14ZM19.0604 17.68C19.0604 18.4 18.5004 18.96 17.7804 18.96C17.0604 18.96 16.5004 18.4 16.5004 17.68C16.5004 16.96 17.0604 16.4 17.7804 16.4C18.5004 16.4 19.0604 16.96 19.0604 17.68ZM25.5404 7.51999C25.5404 8.23999 24.9804 8.79999 24.2604 8.79999C23.5404 8.79999 22.9804 8.23999 22.9804 7.51999C22.9804 6.79999 23.5404 6.23999 24.2604 6.23999C24.9004 6.23999 25.5404 6.79999 25.5404 7.51999ZM5.70039 33.76L14.2604 19.92L18.4204 23.76L25.5404 12L40.1004 33.76H5.70039Z" stroke="white" stroke-miterlimit="10" stroke-linecap="round" stroke-linejoin="round"/>
</g>
<defs>
<clipPath id="clip0_73_8758">
<rect width="40" height="40" fill="white" transform="translate(0.5)"/>
</clipPath>
</defs>
</svg>
