<svg width="41" height="40" viewBox="0 0 41 40" fill="none" xmlns="http://www.w3.org/2000/svg">
<g clip-path="url(#clip0_73_8738)">
<path d="M31.5754 39.6C31.5754 39.6 36.6498 35.9139 36.6498 33.0826C36.6498 29.8137 32.5465 28.7742 31.5754 32.7543C30.6111 28.7742 26.501 29.8068 26.501 33.0826C26.501 35.9207 31.5754 39.6 31.5754 39.6Z" stroke="white" stroke-miterlimit="10" stroke-linecap="round" stroke-linejoin="round"/>
<path d="M31.4112 28.4253V8.92105H26.3368M12.8097 8.92105H7.7353V36.1326H24.9417M27.5336 39.5999H4.3501V5.51532H12.8097M26.3437 5.51532H34.8033V28.4253M22.9585 3.80562C22.9585 1.92495 21.4403 0.399902 19.5733 0.399902C17.7063 0.399902 16.1881 1.92495 16.1881 3.80562H12.8029V10.6239H26.3368V3.80562H22.9585Z" stroke="white" stroke-miterlimit="10" stroke-linecap="round" stroke-linejoin="round"/>
<path d="M12.4062 16.0061H26.7404" stroke="white" stroke-miterlimit="10" stroke-linecap="round" stroke-linejoin="round"/>
<path d="M12.4062 20.7317H26.7404" stroke="white" stroke-miterlimit="10" stroke-linecap="round" stroke-linejoin="round"/>
<path d="M12.4062 25.4573H26.7404" stroke="white" stroke-miterlimit="10" stroke-linecap="round" stroke-linejoin="round"/>
<path d="M12.4062 30.1829H23.5945" stroke="white" stroke-miterlimit="10" stroke-linecap="round" stroke-linejoin="round"/>
</g>
<defs>
<clipPath id="clip0_73_8738">
<rect width="40" height="40" fill="white" transform="translate(0.5)"/>
</clipPath>
</defs>
</svg>
