<svg width="41" height="40" viewBox="0 0 41 40" fill="none" xmlns="http://www.w3.org/2000/svg">
<g clip-path="url(#clip0_73_8637)">
<path d="M20.6604 18L17.7004 21.2M26.5004 18L29.4604 21.2M7.86039 18L10.8204 21.2M23.6204 10.8C21.3804 10.8 19.5404 12.64 19.5404 14.88C19.5404 17.12 21.3804 18.96 23.6204 18.96C25.8604 18.96 27.7004 17.12 27.7004 14.88C27.7004 12.64 25.8604 10.8 23.6204 10.8ZM9.06039 14.88C9.06039 17.12 7.22039 18.96 4.98039 18.96C2.74039 18.96 0.900391 17.12 0.900391 14.88C0.900391 12.64 2.74039 10.8 4.98039 10.8C7.22039 10.8 9.06039 12.64 9.06039 14.88ZM18.3404 23.68C18.3404 25.92 16.5004 27.76 14.2604 27.76C12.0204 27.76 10.1804 25.92 10.1804 23.68C10.1804 21.44 12.0204 19.6 14.2604 19.6C16.5004 19.6 18.3404 21.44 18.3404 23.68ZM34.6604 29.2C34.6604 29.2 40.1004 25.12 40.1004 22C40.1004 18.4 35.7004 17.2 34.6604 21.6C33.6204 17.2 29.2204 18.32 29.2204 22C29.3004 25.12 34.6604 29.2 34.6604 29.2Z" stroke="white" stroke-miterlimit="10" stroke-linecap="round" stroke-linejoin="round"/>
</g>
<defs>
<clipPath id="clip0_73_8637">
<rect width="40" height="40" fill="white" transform="translate(0.5)"/>
</clipPath>
</defs>
</svg>
