<svg width="40" height="40" viewBox="0 0 40 40" fill="none" xmlns="http://www.w3.org/2000/svg">
<g clip-path="url(#clip0_73_8563)">
<path d="M22.2843 29.1147V24.6511L21.3726 25.0117" stroke="white" stroke-miterlimit="10" stroke-linecap="round" stroke-linejoin="round"/>
<path d="M26.8432 26.9296C26.8432 28.1896 26.4666 29.21 25.4756 29.21C24.4855 29.21 24.1079 28.1896 24.1079 26.9296C24.1079 25.6715 24.4855 24.6511 25.4756 24.6511C26.4666 24.6511 26.8432 25.6715 26.8432 26.9296Z" stroke="white" stroke-miterlimit="10" stroke-linecap="round" stroke-linejoin="round"/>
<path d="M31.4018 26.9296C31.4018 28.1896 31.0252 29.21 30.0342 29.21C29.0441 29.21 28.6665 28.1896 28.6665 26.9296C28.6665 25.6715 29.0441 24.6511 30.0342 24.6511C31.0252 24.6511 31.4018 25.6715 31.4018 26.9296Z" stroke="white" stroke-miterlimit="10" stroke-linecap="round" stroke-linejoin="round"/>
<path d="M19.2845 30.9996L15.9019 36.8486L19.4127 36.2539L20.6298 39.6L23.6242 34.571" stroke="white" stroke-miterlimit="10" stroke-linecap="round" stroke-linejoin="round"/>
<path d="M33.4896 30.9996L36.8723 36.8486L33.3614 36.2539L32.1443 39.6L29.1499 34.571" stroke="white" stroke-miterlimit="10" stroke-linecap="round" stroke-linejoin="round"/>
<path d="M26.387 35.0412C30.919 35.0412 34.5929 31.3673 34.5929 26.8353C34.5929 22.3033 30.919 18.6294 26.387 18.6294C21.8551 18.6294 18.1812 22.3033 18.1812 26.8353C18.1812 31.3673 21.8551 35.0412 26.387 35.0412Z" stroke="white" stroke-miterlimit="10" stroke-linecap="round" stroke-linejoin="round"/>
<path d="M19.8558 18.6292C18.4222 15.3573 16.1997 12.6678 12.767 12.6678C4.0042 12.6678 3.12793 30.1933 3.12793 30.1933H16.2189" stroke="white" stroke-miterlimit="10" stroke-linecap="round" stroke-linejoin="round"/>
<path d="M15.353 13.2565C16.7752 6.54674 19.3818 0.400024 24.1585 0.400024C30.2063 0.400024 32.7757 10.2552 33.8674 18.6294" stroke="white" stroke-miterlimit="10" stroke-linecap="round" stroke-linejoin="round"/>
<path d="M17.085 7.34693L20.6533 10.9153L24.1584 7.4102L27.6635 10.9153L31.2508 7.328" stroke="white" stroke-miterlimit="10" stroke-linecap="round" stroke-linejoin="round"/>
</g>
<defs>
<clipPath id="clip0_73_8563">
<rect width="40" height="40" fill="white"/>
</clipPath>
</defs>
</svg>
