<svg width="41" height="40" viewBox="0 0 41 40" fill="none" xmlns="http://www.w3.org/2000/svg">
<g clip-path="url(#clip0_73_8472)">
<path d="M38.7561 18.4174C39.6006 16.5226 40.1004 14.6412 40.1004 12.8479C40.1004 -0.0922462 24.2365 -4.19451 20.5004 11.5598C16.7669 -4.19451 0.900391 -0.0922462 0.900391 12.8479C0.900391 14.6412 1.40282 16.5226 2.24465 18.4147M31.72 22.2368H40.1004M0.900391 22.2368H11.128L13.6829 18.7305L17.093 23.9873L21.3529 15.2242L22.6189 19.7801M32.0429 28.1528C32.8095 27.3332 33.5485 26.507 34.23 25.6962M6.38265 25.3749C12.0697 32.1443 20.5004 38.6401 20.5004 38.6401C20.5004 38.6401 21.9007 37.5986 23.9528 35.8582" stroke="white" stroke-miterlimit="10" stroke-linecap="round" stroke-linejoin="round"/>
<path d="M32.8403 15.2246C25.8926 16.6193 21.7415 23.7593 23.923 30.4735C26.088 37.1362 33.5921 40.5386 40.1006 37.5692C29.801 36.1509 25.3557 22.4078 32.8403 15.2246Z" stroke="white" stroke-miterlimit="10" stroke-linecap="round" stroke-linejoin="round"/>
</g>
<defs>
<clipPath id="clip0_73_8472">
<rect width="40" height="40" fill="white" transform="translate(0.5)"/>
</clipPath>
</defs>
</svg>
