<svg width="40" height="40" viewBox="0 0 40 40" fill="none" xmlns="http://www.w3.org/2000/svg">
<g clip-path="url(#clip0_73_8490)">
<path d="M31.2804 23.1204V3.12039H25.9204M3.12039 25.9204H25.2804M3.12039 20.5604H28.6404M3.12039 15.2004H28.6404M21.9204 12.4804V28.5604M15.2004 12.4804V28.5604M8.48039 12.4804V28.5604M0.400391 9.84039H31.2804M9.76039 3.12039H21.8404M5.76039 3.12039H0.400391V31.2804H23.2004M31.4404 39.6004C36.0004 39.6004 39.6004 35.9204 39.6004 31.4404C39.6004 26.9604 35.9204 23.2004 31.4404 23.2004C26.8804 23.2004 23.2004 26.8804 23.2004 31.4404C23.2004 36.0004 26.8804 39.6004 31.4404 39.6004ZM31.4404 26.0804C31.4404 26.0804 28.0804 31.3604 28.0804 33.2804C28.0804 35.2004 29.6004 36.7204 31.4404 36.7204C33.2804 36.7204 34.8004 35.2004 34.8004 33.2804C34.7204 31.3604 31.4404 26.0804 31.4404 26.0804ZM25.9204 5.76039H21.9204V0.400391H25.9204V5.76039ZM9.76039 5.76039H5.76039V0.400391H9.76039V5.76039Z" stroke="white" stroke-miterlimit="10" stroke-linecap="round" stroke-linejoin="round"/>
</g>
<defs>
<clipPath id="clip0_73_8490">
<rect width="40" height="40" fill="white"/>
</clipPath>
</defs>
</svg>
