<svg width="41" height="40" viewBox="0 0 41 40" fill="none" xmlns="http://www.w3.org/2000/svg">
<g clip-path="url(#clip0_73_8388)">
<path d="M9.41797 25.5908H20.1167" stroke="white" stroke-miterlimit="10" stroke-linecap="round" stroke-linejoin="round"/>
<path d="M9.41797 22.168H23.0267" stroke="white" stroke-miterlimit="10" stroke-linecap="round" stroke-linejoin="round"/>
<path d="M9.41797 18.7441H23.0267" stroke="white" stroke-miterlimit="10" stroke-linecap="round" stroke-linejoin="round"/>
<path d="M9.41797 15.3203H23.0267" stroke="white" stroke-miterlimit="10" stroke-linecap="round" stroke-linejoin="round"/>
<path d="M7.70518 6.84668H4.36719V35.7759H17.548" stroke="white" stroke-miterlimit="10" stroke-linecap="round" stroke-linejoin="round"/>
<path d="M28.0763 23.1943V6.84668H24.7383" stroke="white" stroke-miterlimit="10" stroke-linecap="round" stroke-linejoin="round"/>
<path d="M19.6017 3.42358C19.6017 1.54061 18.0611 0 16.1781 0C14.2951 0 12.7545 1.54061 12.7545 3.42358H7.61914V8.55895H24.5659V3.42358H19.6017Z" stroke="white" stroke-miterlimit="10" stroke-linecap="round" stroke-linejoin="round"/>
<path d="M28.0742 3.42383H31.4978V24.9068" stroke="white" stroke-miterlimit="10" stroke-linecap="round" stroke-linejoin="round"/>
<path d="M11.7276 39.2002H0.943359V3.42383H4.36694" stroke="white" stroke-miterlimit="10" stroke-linecap="round" stroke-linejoin="round"/>
<path d="M18.7698 29.5267L20.8959 31.6768M36.3149 30.0639L34.1874 32.214M28.0283 26.2783V29.3193M14.4922 39.2001H17.5012M40.0592 39.2001H37.0515M20.2085 39.2001H34.3443C34.3443 35.2536 31.1796 32.0558 27.2757 32.0558C23.3731 32.0558 20.2085 35.2536 20.2085 39.2001Z" stroke="white" stroke-miterlimit="10" stroke-linecap="round" stroke-linejoin="round"/>
</g>
<defs>
<clipPath id="clip0_73_8388">
<rect width="40" height="40" fill="white" transform="translate(0.5)"/>
</clipPath>
</defs>
</svg>
