<svg width="41" height="40" viewBox="0 0 41 40" fill="none" xmlns="http://www.w3.org/2000/svg">
<g clip-path="url(#clip0_73_8703)">
<path d="M18.6604 27.5999C15.8604 27.9199 13.7804 28.9599 13.7804 30.1599C13.7804 31.5999 16.7404 32.7999 20.5004 32.7999C24.2604 32.7999 27.1404 31.5999 27.1404 30.1599C27.1404 28.9599 25.0604 27.9199 22.2604 27.5999M8.50039 29.1199L9.86039 30.2399M9.86039 30.2399L8.50039 31.2799M9.86039 30.2399H3.94039M32.5004 29.1199L31.1404 30.2399L32.5004 31.3599M37.1404 30.2399H31.2204M15.1404 22.4799C6.98039 23.5199 0.900391 26.5599 0.900391 30.2399C0.900391 34.7199 9.70039 38.3199 20.5004 38.3199C31.3004 38.3199 40.1004 34.7199 40.1004 30.2399C40.1004 26.6399 34.0204 23.5199 25.9404 22.5599M24.5004 11.7599C24.5004 13.9199 22.7404 15.6799 20.5004 15.6799C18.2604 15.6799 16.5004 13.9199 16.5004 11.7599C16.5004 9.59993 18.2604 7.83993 20.5004 7.83993C22.7404 7.83993 24.5004 9.59993 24.5004 11.7599ZM20.5004 1.67993C14.8204 1.67993 10.1804 6.15993 10.1804 11.6799C10.1804 17.1999 20.5004 29.1199 20.5004 29.1199C20.5004 29.1199 30.8204 17.1999 30.8204 11.6799C30.8204 6.15993 26.1804 1.67993 20.5004 1.67993Z" stroke="white" stroke-miterlimit="10" stroke-linecap="round" stroke-linejoin="round"/>
</g>
<defs>
<clipPath id="clip0_73_8703">
<rect width="40" height="40" fill="white" transform="translate(0.5)"/>
</clipPath>
</defs>
</svg>
