<svg width="41" height="40" viewBox="0 0 41 40" fill="none" xmlns="http://www.w3.org/2000/svg">
<g clip-path="url(#clip0_73_8595)">
<path d="M18.8203 25.9999H22.2603M18.8203 17.4399H22.2603M18.8203 8.9599H22.2603M6.90027 4.6399C6.90027 4.6399 10.2603 32.7999 20.5003 32.7999C30.7403 32.7999 34.1003 4.6399 34.1003 4.6399M6.90027 4.6399L2.58027 8.9599M6.90027 4.6399L11.1403 8.8799M34.1003 4.6399L29.8603 8.9599M34.1003 4.6399L38.3403 8.8799M6.02027 37.0399L1.78027 32.7999M1.78027 32.7999L6.02027 28.5599M1.78027 32.7999H39.3003M16.2603 4.6399L20.5003 0.399902M20.5003 0.399902L24.7403 4.6399M20.5003 0.399902V39.5999M34.9803 28.5599L39.2203 32.7999L34.9803 37.0399" stroke="white" stroke-miterlimit="10" stroke-linecap="round" stroke-linejoin="round"/>
</g>
<defs>
<clipPath id="clip0_73_8595">
<rect width="40" height="40" fill="white" transform="translate(0.5)"/>
</clipPath>
</defs>
</svg>
