<svg width="40" height="40" viewBox="0 0 40 40" fill="none" xmlns="http://www.w3.org/2000/svg">
<g clip-path="url(#clip0_73_8605)">
<path d="M12.338 26.2649C11.1945 27.8123 9.65273 30.2302 8.41252 31.7093C6.96181 33.4502 5.18682 34.679 3.64509 36.3402C2.96809 37.0684 2.07491 37.2391 1.32964 36.8124C0.573 36.3857 0.282858 35.6917 0.442152 34.8668C0.51042 34.514 0.715226 34.1329 0.976923 33.8882C4.31071 31.1461 6.10845 29.6613 8.12806 25.5538C8.22478 25.349 9.11227 23.2895 9.38534 22.4134M22.9367 6.08584C22.9367 7.81531 21.5372 9.2262 19.8077 9.2262C18.0782 9.2262 16.6787 7.821 16.6787 6.08584C16.6787 4.35068 18.0782 2.95117 19.8077 2.95117C21.5372 2.95117 22.9367 4.35637 22.9367 6.08584ZM16.0358 29.2175C15.0403 28.3528 14.1073 27.5449 13.1799 26.7314C12.4688 26.1113 11.752 25.4912 11.0579 24.854C9.03831 22.9937 9.08382 21.617 10.0168 19.7453C10.8816 18.0044 11.5756 16.1782 12.338 14.3805C12.355 14.335 12.3323 14.2724 12.3266 14.1643C11.1831 14.1757 10.1363 14.2553 9.59584 15.5581C9.3057 16.2579 8.8335 16.8894 8.40114 17.5208C7.7981 18.4026 6.84802 18.6586 6.10845 18.1808C5.34611 17.6972 5.22095 16.9349 5.77279 15.9222C6.46686 14.6536 7.19506 13.402 7.90619 12.139C8.32718 11.388 8.95297 10.9727 9.80633 10.8533C11.5529 10.6143 13.2994 10.3014 15.0573 10.1137C16.4398 9.96578 17.7938 10.2901 18.9316 11.0808C20.3083 12.0309 21.5884 13.1289 22.9822 14.2155C23.7047 13.1858 24.4784 12.0821 25.2521 10.9784C25.9291 10.017 26.7882 9.7439 27.5676 10.2389C28.3925 10.7566 28.5688 11.7294 27.926 12.7363C26.8735 14.3748 25.7812 15.9905 24.6605 17.5834C24.0176 18.4937 23.2666 18.6302 22.2654 18.0784C21.1332 17.4526 20.0182 16.7926 18.7837 16.0815C17.4922 18.2547 16.2236 20.3995 14.898 22.6353C16.1895 23.921 17.4638 25.1783 18.7325 26.447C20.1092 27.8237 20.2742 28.9843 19.3241 30.6569C18.3456 32.375 17.3728 34.0987 16.3886 35.8168C15.7286 36.9717 14.6989 37.3415 13.7432 36.8124C12.7533 36.2549 12.5655 35.1512 13.2596 33.9679C14.1698 32.4148 15.0744 30.8617 16.0358 29.2175Z" stroke="white" stroke-miterlimit="10" stroke-linecap="round" stroke-linejoin="round"/>
<path d="M37.4493 29.1037C37.4493 29.1037 39.5997 27.5449 39.5997 26.3388C39.5997 24.9507 37.8589 24.5126 37.4493 26.2023C37.0397 24.5126 35.2988 24.9564 35.2988 26.3388C35.2988 27.5392 37.4493 29.1037 37.4493 29.1037Z" stroke="white" stroke-miterlimit="10" stroke-linecap="round" stroke-linejoin="round"/>
<path d="M23.0733 24.3363C24.0724 24.3363 24.8824 23.5263 24.8824 22.5271C24.8824 21.528 24.0724 20.718 23.0733 20.718C22.0741 20.718 21.2642 21.528 21.2642 22.5271C21.2642 23.5263 22.0741 24.3363 23.0733 24.3363Z" stroke="white" stroke-miterlimit="10" stroke-linecap="round" stroke-linejoin="round"/>
<path d="M27.6299 28.9161C28.6291 28.9161 29.439 28.1061 29.439 27.107C29.439 26.1078 28.6291 25.2979 27.6299 25.2979C26.6308 25.2979 25.8208 26.1078 25.8208 27.107C25.8208 28.1061 26.6308 28.9161 27.6299 28.9161Z" stroke="white" stroke-miterlimit="10" stroke-linecap="round" stroke-linejoin="round"/>
<path d="M32.187 24.3363C33.1862 24.3363 33.9962 23.5263 33.9962 22.5271C33.9962 21.528 33.1862 20.718 32.187 20.718C31.1879 20.718 30.3779 21.528 30.3779 22.5271C30.3779 23.5263 31.1879 24.3363 32.187 24.3363Z" stroke="white" stroke-miterlimit="10" stroke-linecap="round" stroke-linejoin="round"/>
<path d="M24.3359 23.813L26.3499 25.8269" stroke="white" stroke-miterlimit="10" stroke-linecap="round" stroke-linejoin="round"/>
<path d="M33.4727 23.813L35.4866 25.8269" stroke="white" stroke-miterlimit="10" stroke-linecap="round" stroke-linejoin="round"/>
<path d="M31.1291 24.0007L29.0981 26.0317" stroke="white" stroke-miterlimit="10" stroke-linecap="round" stroke-linejoin="round"/>
</g>
<defs>
<clipPath id="clip0_73_8605">
<rect width="40" height="40" fill="white"/>
</clipPath>
</defs>
</svg>
