<svg width="41" height="40" viewBox="0 0 41 40" fill="none" xmlns="http://www.w3.org/2000/svg">
<g clip-path="url(#clip0_73_8797)">
<path d="M18.1797 27.1999C16.8997 28.9599 15.0597 31.7599 13.6997 33.4399C12.0197 35.4399 10.0197 36.8799 8.25968 38.7999C7.45968 39.6799 6.49968 39.8399 5.61968 39.3599C4.73968 38.8799 4.41968 38.0799 4.57968 37.1199C4.65968 36.7199 4.89968 36.2399 5.21968 35.9999C9.05968 32.8799 11.1397 31.1199 13.3797 26.3999C13.4597 26.1599 14.4997 23.7599 14.8197 22.7999M30.3397 3.9999C30.3397 5.9999 28.7397 7.5999 26.7397 7.5999C24.7397 7.5999 23.1397 5.9999 23.1397 3.9999C23.1397 1.9999 24.7397 0.399902 26.7397 0.399902C28.7397 0.399902 30.3397 1.9999 30.3397 3.9999ZM22.4197 30.5599C21.2997 29.5999 20.1797 28.6399 19.1397 27.6799L16.7397 25.5199C14.4197 23.3599 14.4997 21.8399 15.5397 19.6799C16.4997 17.6799 17.2997 15.5999 18.1797 13.5199V13.2799C16.8997 13.2799 15.6997 13.3599 15.0597 14.8799C14.7397 15.6799 14.1797 16.3999 13.6997 17.1199C12.9797 18.1599 11.9397 18.3999 11.0597 17.9199C10.1797 17.3599 10.0197 16.4799 10.6597 15.3599C11.4597 13.9199 12.2597 12.4799 13.1397 11.0399C13.6197 10.1599 14.3397 9.6799 15.2997 9.5999C17.2997 9.3599 19.2997 8.9599 21.2997 8.7199C22.8997 8.5599 24.4197 8.9599 25.7797 9.8399C27.3797 10.9599 28.8197 12.1599 30.4197 13.4399C31.2197 12.2399 32.0997 10.9599 33.0597 9.7599C33.8597 8.6399 34.8197 8.3199 35.6997 8.8799C36.6597 9.4399 36.8197 10.5599 36.0997 11.7599C34.8997 13.6799 33.6197 15.5199 32.3397 17.3599C31.6197 18.3999 30.7397 18.5599 29.6197 17.9199C28.3397 17.1999 27.0597 16.4799 25.6197 15.5999C24.1797 18.0799 22.6597 20.5599 21.1397 23.1199L25.5397 27.5199C27.1397 29.1199 27.2997 30.4799 26.1797 32.3999C25.0597 34.3999 23.9397 36.3199 22.8197 38.3199C22.0197 39.6799 20.8997 40.0799 19.7797 39.4399C18.6597 38.7999 18.4197 37.5199 19.2197 36.1599C20.2597 34.2399 21.2997 32.4799 22.4197 30.5599Z" stroke="white" stroke-miterlimit="10" stroke-linecap="round" stroke-linejoin="round"/>
</g>
<defs>
<clipPath id="clip0_73_8797">
<rect width="40" height="40" fill="white" transform="translate(0.5)"/>
</clipPath>
</defs>
</svg>
