<svg width="40" height="40" viewBox="0 0 40 40" fill="none" xmlns="http://www.w3.org/2000/svg">
<g clip-path="url(#clip0_73_8768)">
<path d="M33.5245 27.0799L30.6452 24.1941M38.6425 21.3084L39.2831 21.9489M32.5604 21.0172V18.4226H34.4821V21.0172M37.8208 22.7707L38.9596 21.6254M31.6028 18.4226H35.4397M39.6001 27.0799C39.6001 30.4445 36.8761 33.175 33.5245 33.175C30.1664 33.175 27.4424 30.4445 27.4424 27.0799C27.4424 23.7153 30.1664 20.9849 33.5245 20.9849C36.8761 20.9849 39.6001 23.7153 39.6001 27.0799Z" stroke="white" stroke-miterlimit="10" stroke-linecap="round" stroke-linejoin="round"/>
<path d="M13.9774 27.1253C12.6769 28.8852 10.9234 31.6351 9.51288 33.3174C7.86295 35.2973 5.84421 36.6949 4.09075 38.5842C3.32078 39.4124 2.30494 39.6065 1.45732 39.1212C0.596771 38.636 0.266785 37.8466 0.447954 36.9084C0.525598 36.5072 0.75853 36.0737 1.05616 35.7955C4.84778 32.6768 6.8924 30.988 9.18937 26.3165C9.29936 26.0835 10.3087 23.7413 10.6193 22.7448M26.0316 4.17501C26.0316 6.14199 24.4399 7.74663 22.4729 7.74663C20.506 7.74663 18.9143 6.14846 18.9143 4.17501C18.9143 2.20156 20.506 0.609863 22.4729 0.609863C24.4399 0.609863 26.0316 2.20803 26.0316 4.17501ZM18.1831 30.4834C17.0508 29.4999 15.9897 28.5811 14.935 27.6558C14.1262 26.9506 13.311 26.2453 12.5216 25.5206C10.2246 23.4048 10.2764 21.839 11.3375 19.7103C12.321 17.7303 13.1104 15.6534 13.9774 13.6087C13.9968 13.557 13.9709 13.4858 13.9645 13.3629C12.6639 13.3758 11.4734 13.4664 10.8587 14.9481C10.5287 15.744 9.99168 16.4622 9.49994 17.1804C8.81409 18.1833 7.73354 18.4744 6.8924 17.9309C6.02537 17.381 5.88303 16.5139 6.51065 15.3622C7.30003 13.9193 8.12823 12.4959 8.93702 11.0594C9.41583 10.2054 10.1276 9.73303 11.0981 9.59715C13.0845 9.3254 15.0709 8.96953 17.0702 8.75601C18.6425 8.58778 20.1824 8.95659 21.4765 9.85596C23.0423 10.9365 24.4982 12.1853 26.0834 13.4211C26.9051 12.25 27.7851 10.9947 28.665 9.7395C29.435 8.64601 30.412 8.33543 31.2985 8.89835C32.2367 9.48715 32.4372 10.5936 31.7061 11.7388C30.5091 13.6023 29.2668 15.4399 27.9921 17.2515C27.261 18.2868 26.4069 18.4421 25.2681 17.8145C23.9805 17.1027 22.7124 16.3522 21.3083 15.5434C19.8395 18.015 18.3966 20.4544 16.8891 22.9972C18.3578 24.4595 19.8072 25.8894 21.2501 27.3323C22.8159 28.8981 23.0035 30.2181 21.923 32.1204C20.8101 34.0744 19.7037 36.0349 18.5843 37.9889C17.8337 39.3024 16.6626 39.723 15.5756 39.1213C14.4497 38.4872 14.2362 37.2319 15.0256 35.8861C16.0609 34.1197 17.0896 32.3533 18.1831 30.4834Z" stroke="white" stroke-miterlimit="10" stroke-linecap="round" stroke-linejoin="round"/>
</g>
<defs>
<clipPath id="clip0_73_8768">
<rect width="40" height="40" fill="white"/>
</clipPath>
</defs>
</svg>
