<svg width="41" height="40" viewBox="0 0 41 40" fill="none" xmlns="http://www.w3.org/2000/svg">
<g clip-path="url(#clip0_73_8430)">
<path d="M14.7713 20.175L14.1347 18.1982L12.1445 18.8415" stroke="white" stroke-miterlimit="10" stroke-linecap="round" stroke-linejoin="round"/>
<path d="M18.7969 0.400391H22.2009" stroke="white" stroke-miterlimit="10" stroke-linecap="round" stroke-linejoin="round"/>
<path d="M29.5722 13.6279L27.9238 15.2763" stroke="white" stroke-miterlimit="10" stroke-linecap="round" stroke-linejoin="round"/>
<path d="M29.5722 31.8008L27.9238 30.1523" stroke="white" stroke-miterlimit="10" stroke-linecap="round" stroke-linejoin="round"/>
<path d="M20.5 9.81543V12.4757" stroke="white" stroke-miterlimit="10" stroke-linecap="round" stroke-linejoin="round"/>
<path d="M20.5 35.6134V32.9531" stroke="white" stroke-miterlimit="10" stroke-linecap="round" stroke-linejoin="round"/>
<path d="M33.3781 22.7207H30.7246" stroke="white" stroke-miterlimit="10" stroke-linecap="round" stroke-linejoin="round"/>
<path d="M11.4336 31.8008L13.0753 30.1523" stroke="white" stroke-miterlimit="10" stroke-linecap="round" stroke-linejoin="round"/>
<path d="M11.4336 13.6279L13.0753 15.2763" stroke="white" stroke-miterlimit="10" stroke-linecap="round" stroke-linejoin="round"/>
<path d="M7.62109 22.7207H10.2813" stroke="white" stroke-miterlimit="10" stroke-linecap="round" stroke-linejoin="round"/>
<path d="M20.4995 5.5127C11.0982 5.5127 3.47266 13.145 3.47266 22.5597C3.47266 31.9677 11.0982 39.5999 20.4995 39.5999C29.9008 39.5999 37.5264 31.9677 37.5264 22.5597C37.5331 13.145 29.9075 5.5127 20.4995 5.5127Z" stroke="white" stroke-miterlimit="10" stroke-linecap="round" stroke-linejoin="round"/>
<path d="M35.4014 6.79297L32.1113 10.0831" stroke="white" stroke-miterlimit="10" stroke-linecap="round" stroke-linejoin="round"/>
<path d="M34.1289 5.5127L36.6819 8.07242" stroke="white" stroke-miterlimit="10" stroke-linecap="round" stroke-linejoin="round"/>
<path d="M20.5 0.400391V5.51314" stroke="white" stroke-miterlimit="10" stroke-linecap="round" stroke-linejoin="round"/>
<path d="M15.9631 16.402C17.2429 15.484 18.8109 14.9412 20.5063 14.9412C24.8015 14.9412 28.2859 18.4257 28.2859 22.7209C28.2859 27.0162 24.8015 30.5006 20.5063 30.5006C16.211 30.5006 12.7266 27.0162 12.7266 22.7209C12.7266 21.2467 13.1353 19.8731 13.8456 18.7004" stroke="white" stroke-miterlimit="10" stroke-linecap="round" stroke-linejoin="round"/>
</g>
<defs>
<clipPath id="clip0_73_8430">
<rect width="40" height="40" fill="white" transform="translate(0.5)"/>
</clipPath>
</defs>
</svg>
