<svg width="40" height="40" viewBox="0 0 40 40" fill="none" xmlns="http://www.w3.org/2000/svg">
<g clip-path="url(#clip0_73_8517)">
<path d="M39.1151 26.7184H28.8583M33.9878 21.5911V31.8479M14.6496 27.2056C13.3301 28.9817 11.5518 31.7627 10.1274 33.4667C8.45402 35.47 6.40485 36.8791 4.62657 38.7928C3.84885 39.6317 2.81771 39.8217 1.95479 39.3368C1.08095 38.8452 0.748884 38.0522 0.934577 37.1019C1.01104 36.6956 1.24916 36.2565 1.54845 35.9746C5.39337 32.8244 7.46439 31.1182 9.791 26.3951C9.90678 26.1635 10.9248 23.7954 11.2416 22.7861M26.8725 4.00719C26.8725 5.99955 25.2559 7.61617 23.2635 7.61617C21.2711 7.61617 19.6567 5.99955 19.6567 4.00719C19.6567 2.01482 21.2711 0.400391 23.2635 0.400391C25.2559 0.400391 26.8725 2.01482 26.8725 4.00719ZM18.9161 30.5939C17.7714 29.5999 16.6922 28.6715 15.6217 27.7343C14.8025 27.0199 13.9789 26.3099 13.1793 25.5737C10.8527 23.435 10.903 21.8533 11.9778 19.7015C12.9784 17.7003 13.7736 15.5966 14.6561 13.5387C14.678 13.484 14.6496 13.4098 14.643 13.2918C13.3235 13.3027 12.1198 13.3967 11.4994 14.8887C11.1651 15.6949 10.6212 16.418 10.1209 17.1476C9.42617 18.1613 8.33168 18.454 7.47968 17.9079C6.60146 17.3464 6.4551 16.4748 7.09519 15.3126C7.89694 13.8554 8.73583 12.4158 9.55069 10.9652C10.0357 10.1044 10.7588 9.62164 11.7397 9.4862C13.7561 9.21094 15.7681 8.85266 17.7932 8.6342C19.388 8.4638 20.9456 8.83955 22.2586 9.74617C23.8446 10.8385 25.3192 12.0968 26.9249 13.3508C27.7573 12.1689 28.6486 10.8996 29.5421 9.63038C30.3198 8.52715 31.3116 8.21257 32.2139 8.78275C33.162 9.38134 33.3695 10.4977 32.6246 11.6512C31.4121 13.5343 30.1516 15.3912 28.8627 17.2241C28.1243 18.2727 27.2526 18.4278 26.1035 17.7921C24.7971 17.0712 23.5126 16.3131 22.0904 15.4961C20.6048 17.9931 19.1411 20.4595 17.6119 23.0308C19.0996 24.5054 20.5721 25.956 22.0336 27.4131C23.6218 28.9992 23.8075 30.3362 22.7152 32.2564C21.5879 34.2313 20.4672 36.2128 19.3268 38.1833C18.5622 39.5093 17.3782 39.9397 16.2771 39.3258C15.1367 38.6879 14.9183 37.4187 15.7157 36.0555C16.7599 34.2706 17.8085 32.4836 18.9161 30.5939Z" stroke="white" stroke-miterlimit="10" stroke-linecap="round" stroke-linejoin="round"/>
</g>
<defs>
<clipPath id="clip0_73_8517">
<rect width="40" height="40" fill="white"/>
</clipPath>
</defs>
</svg>
