<svg width="41" height="40" viewBox="0 0 41 40" fill="none" xmlns="http://www.w3.org/2000/svg">
<g clip-path="url(#clip0_73_8691)">
<path d="M14.8167 27.2051C13.4952 28.9814 11.7144 31.7634 10.2898 33.4657C8.61438 35.4682 6.56484 36.8794 4.78634 38.79C4.00685 39.6322 2.97648 39.8226 2.11411 39.3366C1.23606 38.846 0.904546 38.0508 1.09046 37.1011C1.16886 36.6957 1.40629 36.2567 1.70644 35.9722C5.5524 32.8229 7.62433 31.1183 9.95386 26.3943C10.0681 26.1636 11.0895 23.7937 11.4053 22.7858M27.0467 4.00843C27.0467 5.99972 25.4295 7.61695 23.4337 7.61695C21.4402 7.61695 19.8252 5.99972 19.8252 4.00843C19.8252 2.01489 21.4402 0.399902 23.4337 0.399902C25.4295 0.399902 27.0467 2.01489 27.0467 4.00843ZM19.0838 30.5941C17.9392 29.5996 16.8596 28.67 15.7889 27.7338C14.9691 27.0192 14.1448 26.3092 13.3429 25.5745C11.0156 23.4353 11.0649 21.8539 12.1423 19.7014C13.1435 17.7011 13.9387 15.5978 14.8212 13.5371C14.8436 13.4833 14.8145 13.4116 14.8078 13.2929C13.4885 13.3019 12.2856 13.3982 11.6629 14.89C11.3292 15.6964 10.7826 16.4176 10.2831 17.1479C9.58875 18.1603 8.49342 18.4537 7.64001 17.9072C6.76196 17.3472 6.61412 16.4736 7.25698 15.3111C8.05888 13.8552 8.89661 12.4171 9.71418 10.9656C10.198 10.1055 10.9215 9.6217 11.9026 9.48729C13.923 9.21178 15.9345 8.8534 17.9616 8.63612C19.5564 8.46364 21.1154 8.83995 22.428 9.74489C24.0161 10.838 25.4922 12.0968 27.1005 13.3512C27.9315 12.1685 28.823 10.8985 29.719 9.63065C30.4962 8.52636 31.4908 8.21277 32.3912 8.78396C33.3409 9.38202 33.547 10.4975 32.8034 11.6511C31.5893 13.5326 30.3282 15.3917 29.038 17.224C28.2989 18.2723 27.4275 18.4269 26.2762 17.7907C24.9703 17.0717 23.6846 16.3124 22.26 15.4948C20.7749 17.9945 19.31 20.4585 17.7802 23.0299C19.2675 24.506 20.7414 25.9553 22.204 27.4134C23.7944 28.9971 23.9803 30.3343 22.8872 32.2562C21.7583 34.2295 20.6361 36.2119 19.496 38.183C18.7299 39.509 17.5472 39.9391 16.4429 39.3254C15.3028 38.687 15.0855 37.4192 15.8829 36.0551C16.9268 34.2699 17.975 32.4846 19.0838 30.5941ZM39.9599 26.448L32.2949 36.082L33.8136 29.9513H27.6672L35.0746 19.4415L33.8136 26.448H39.9599Z" stroke="white" stroke-miterlimit="10" stroke-linecap="round" stroke-linejoin="round"/>
</g>
<defs>
<clipPath id="clip0_73_8691">
<rect width="40" height="40" fill="white" transform="translate(0.5)"/>
</clipPath>
</defs>
</svg>
