<svg width="41" height="40" viewBox="0 0 41 40" fill="none" xmlns="http://www.w3.org/2000/svg">
<g clip-path="url(#clip0_73_8655)">
<path d="M29.1502 30.9471H11.8497C5.80378 30.9471 0.899902 26.0432 0.899902 19.9973C0.899902 13.9566 5.80378 9.05273 11.8497 9.05273H29.1502C35.196 9.05273 40.0999 13.9566 40.0999 20.0025C40.0947 26.0484 35.196 30.9471 29.1502 30.9471Z" stroke="white" stroke-miterlimit="10" stroke-linecap="round" stroke-linejoin="round"/>
<path d="M28.6745 28.1877H12.3248C7.80335 28.1877 4.13965 24.5241 4.13965 20.0026C4.13965 15.4811 7.80334 11.8174 12.3248 11.8174H28.6745C33.196 11.8174 36.8597 15.4811 36.8597 20.0026C36.8597 24.5189 33.196 28.1877 28.6745 28.1877Z" stroke="white" stroke-miterlimit="10" stroke-linecap="round" stroke-linejoin="round"/>
<path d="M28.2356 25.3248H12.7643C9.82407 25.3248 7.44189 22.9426 7.44189 20.0024C7.44189 17.0621 9.82407 14.6799 12.7643 14.6799H28.2356C31.1758 14.6799 33.558 17.0621 33.558 20.0024C33.558 22.9426 31.1758 25.3248 28.2356 25.3248Z" stroke="white" stroke-miterlimit="10" stroke-linecap="round" stroke-linejoin="round"/>
<path d="M27.5432 22.5035H13.4517C12.072 22.5035 10.9507 21.3822 10.9507 20.0025C10.9507 18.6228 12.072 17.5015 13.4517 17.5015H27.5432C28.9229 17.5015 30.0443 18.6228 30.0443 20.0025C30.0443 21.3822 28.9229 22.5035 27.5432 22.5035Z" stroke="white" stroke-miterlimit="10" stroke-linecap="round" stroke-linejoin="round"/>
<path d="M23.3628 22.5034V25.3248" stroke="white" stroke-miterlimit="10" stroke-linecap="round" stroke-linejoin="round"/>
<path d="M27.5483 25.325V28.1464" stroke="white" stroke-miterlimit="10" stroke-linecap="round" stroke-linejoin="round"/>
<path d="M31.7339 27.7432V30.5646" stroke="white" stroke-miterlimit="10" stroke-linecap="round" stroke-linejoin="round"/>
</g>
<defs>
<clipPath id="clip0_73_8655">
<rect width="40" height="40" fill="white" transform="translate(0.5)"/>
</clipPath>
</defs>
</svg>
