<svg width="40" height="40" viewBox="0 0 40 40" fill="none" xmlns="http://www.w3.org/2000/svg">
<g clip-path="url(#clip0_73_8646)">
<path d="M22.921 23.417V35.4928M31.2604 15.4001V35.4928M39.5999 7.38321V35.4928M17.2157 4.50708C15.5716 4.50708 14.2388 5.84883 14.2388 7.50418C14.2388 9.15952 15.5716 10.5013 17.2157 10.5013C18.8621 10.5013 20.1949 9.15952 20.1949 7.50418C20.1949 5.84883 18.8621 4.50708 17.2157 4.50708ZM7.60169 23.417C8.24905 24.9246 9.11368 25.7444 10.2113 26.5553C9.84392 27.346 6.8065 31.2861 3.30988 34.7783C2.70284 35.4435 1.90317 35.5936 1.23341 35.2106C0.552459 34.8208 0.294857 34.1914 0.438219 33.4387C0.500938 33.1184 0.684619 32.769 0.917577 32.5472C3.90348 30.0519 7.13802 25.3815 7.60169 23.417ZM11.9271 32.6122C11.3066 33.6896 11.4769 34.6954 12.3639 35.1994C13.2196 35.6877 14.1402 35.345 14.7338 34.2944C15.6186 32.7354 16.49 31.1674 17.3658 29.6016C18.217 28.0829 18.0736 27.0234 16.8372 25.769C15.7015 24.6154 14.5569 23.4663 13.401 22.2993C14.5882 20.2631 15.7261 18.3099 16.8797 16.3342C17.9863 16.9793 18.9853 17.5796 20 18.1508C20.8938 18.6526 21.5703 18.5316 22.1437 17.7006C23.1472 16.2513 24.1238 14.7797 25.0691 13.2878C25.647 12.3761 25.4858 11.4913 24.7488 11.0187C24.0477 10.5685 23.2771 10.8149 22.6723 11.6907C21.9779 12.6942 21.2858 13.6977 20.6407 14.6341C19.3907 13.6417 18.2439 12.6472 17.0119 11.7803C15.9904 11.0635 14.7808 10.7656 13.5421 10.9022C11.9674 11.0747 10.4062 11.357 8.83592 11.5765C8.07433 11.684 7.51209 12.0648 7.13578 12.748C6.50186 13.8949 5.85002 15.0328 5.22731 16.1886C4.73003 17.107 4.84427 17.7992 5.52523 18.2427C6.18826 18.675 7.03946 18.442 7.5793 17.6401C7.96681 17.0644 8.39017 16.491 8.65001 15.8526C9.1316 14.6721 10.0679 14.596 11.0938 14.5893C11.0983 14.6811 11.1207 14.7416 11.1028 14.7819C10.4174 16.4148 9.80136 18.0792 9.02184 19.6628C8.18633 21.3652 8.14825 22.6196 9.95592 24.313C10.5764 24.8954 11.217 25.4577 11.8532 26.0221C12.6865 26.7636 13.5242 27.5005 14.4135 28.2868C13.5533 29.7831 12.7402 31.1965 11.9271 32.6122Z" stroke="white" stroke-miterlimit="10" stroke-linecap="round" stroke-linejoin="round"/>
</g>
<defs>
<clipPath id="clip0_73_8646">
<rect width="40" height="40" fill="white"/>
</clipPath>
</defs>
</svg>
