<svg width="41" height="40" viewBox="0 0 41 40" fill="none" xmlns="http://www.w3.org/2000/svg">
<g clip-path="url(#clip0_73_8626)">
<path d="M29.0599 21.7599L23.9399 28.7199M23.9399 21.7599L29.0599 28.7199M16.0199 28.7199V21.7599L13.9399 25.2799L11.8599 21.7599V28.7199M18.2599 25.9199H22.3399M18.2599 28.7199V23.8399C18.2599 22.7199 19.1399 21.7599 20.3399 21.7599C21.4599 21.7599 22.4199 22.7199 22.4199 23.8399V28.7199M12.6599 11.2799L14.4999 18.2399L16.3399 11.2799M24.9799 12.8799C24.9799 11.9999 25.7799 11.2799 26.6599 11.2799C27.6199 11.2799 28.3399 12.0799 28.3399 12.9599C28.3399 13.4399 28.1799 13.7599 28.0199 13.9999L24.9799 18.3199H28.3399M23.2199 14.7199C23.2199 16.6399 22.2599 18.2399 20.6599 18.2399C19.0599 18.2399 18.0999 16.6399 18.0999 14.7199C18.0999 12.7999 19.0599 11.1999 20.6599 11.1999C22.2599 11.2799 23.2199 12.7999 23.2199 14.7199ZM20.4999 39.5999C31.2999 39.5999 40.0999 30.7999 40.0999 19.9999C40.0999 9.1999 31.2999 0.399902 20.4999 0.399902C9.6999 0.399902 0.899902 9.1999 0.899902 19.9999C0.899902 30.7999 9.6999 39.5999 20.4999 39.5999Z" stroke="white" stroke-miterlimit="10" stroke-linecap="round" stroke-linejoin="round"/>
</g>
<defs>
<clipPath id="clip0_73_8626">
<rect width="40" height="40" fill="white" transform="translate(0.5)"/>
</clipPath>
</defs>
</svg>
