<svg width="41" height="40" viewBox="0 0 41 40" fill="none" xmlns="http://www.w3.org/2000/svg">
<g clip-path="url(#clip0_73_8529)">
<path d="M14.6602 30.3204V39.6004H26.4202V30.2404M14.6602 9.68039V0.400391H26.4202V9.68039M20.5002 26.8004C20.5002 26.8004 26.3402 22.4804 26.3402 19.1204C26.3402 15.2804 21.6202 14.0804 20.5002 18.7204C19.3802 14.0004 14.6602 15.2804 14.6602 19.1204C14.6602 22.4804 20.5002 26.8004 20.5002 26.8004Z" stroke="white" stroke-miterlimit="10" stroke-linecap="round" stroke-linejoin="round"/>
<path d="M32.3402 20.0004C32.3402 26.5604 27.0602 31.8404 20.5002 31.8404C13.9402 31.8404 8.66016 26.5604 8.66016 20.0004C8.66016 13.4404 13.9402 8.1604 20.5002 8.1604C27.0602 8.1604 32.3402 13.4404 32.3402 20.0004Z" stroke="white" stroke-miterlimit="10" stroke-linecap="round" stroke-linejoin="round"/>
</g>
<defs>
<clipPath id="clip0_73_8529">
<rect width="40" height="40" fill="white" transform="translate(0.5)"/>
</clipPath>
</defs>
</svg>
